<?xml version="1.0" encoding="UTF-8" standalone="no"?>
<!-- Created with Inkscape (http://www.inkscape.org/) -->

<svg
   width="16"
   height="16"
   viewBox="0 0 4.2333334 4.2333334"
   version="1.1"
   id="svg1"
   inkscape:version="1.3.2 (091e20e, 2023-11-25, custom)"
   sodipodi:docname="autoclean.svg"
   inkscape:export-filename="save.png"
   inkscape:export-xdpi="15.36"
   inkscape:export-ydpi="15.36"
   xmlns:inkscape="http://www.inkscape.org/namespaces/inkscape"
   xmlns:sodipodi="http://sodipodi.sourceforge.net/DTD/sodipodi-0.dtd"
   xmlns="http://www.w3.org/2000/svg"
   xmlns:svg="http://www.w3.org/2000/svg">
  <sodipodi:namedview
     id="namedview1"
     pagecolor="#ffffff"
     bordercolor="#000000"
     borderopacity="0.25"
     inkscape:showpageshadow="2"
     inkscape:pageopacity="0.0"
     inkscape:pagecheckerboard="0"
     inkscape:deskcolor="#d1d1d1"
     inkscape:document-units="mm"
     inkscape:zoom="32.566415"
     inkscape:cx="3.0245884"
     inkscape:cy="8.428929"
     inkscape:window-width="1920"
     inkscape:window-height="1009"
     inkscape:window-x="1912"
     inkscape:window-y="-8"
     inkscape:window-maximized="1"
     inkscape:current-layer="layer1" />
  <defs
     id="defs1">
    <rect
       x="105.44165"
       y="268.48566"
       width="359.28265"
       height="262.62781"
       id="rect1" />
  </defs>
  <g
     inkscape:label="Layer 1"
     inkscape:groupmode="layer"
     id="layer1"
     transform="translate(-35.923626,-56.960553)">
    <path
       d="m 39.941306,56.960555 -1.500184,1.500184 -0.192211,-0.192211 v -0.0047 l -0.0047,-0.0047 c -0.09611,-0.08556 -0.221511,-0.126577 -0.342229,-0.126577 -0.120718,0 -0.237334,0.04512 -0.328165,0.135954 l -0.02344,0.01875 -0.07501,0.07501 -0.05157,0.04219 -1.368918,1.064194 -0.131266,0.107825 1.617386,1.617386 0.107826,-0.131266 1.059505,-1.359542 0.0047,0.0047 0.150018,-0.150018 h 0.0047 l 0.0047,-0.0047 c 0.171115,-0.192797 0.172287,-0.488732 -0.0094,-0.670395 l -0.206274,-0.206276 1.500184,-1.500184 z m -2.039313,1.472056 c 0.0463,-0.0012 0.09728,0.01465 0.135954,0.04688 0.0018,0.0012 0.0029,0.0035 0.0047,0.0047 l 0.60945,0.609449 c 0.05626,0.05626 0.06153,0.175803 0,0.253156 -0.0023,0.0029 -0.0023,0.0064 -0.0047,0.0094 l -0.04688,0.04219 -0.867294,-0.867294 0.05157,-0.05157 c 0.02871,-0.02871 0.07091,-0.04571 0.117201,-0.04688 z m -0.398486,0.290661 0.890734,0.890734 -0.881358,1.125138 -0.215651,-0.215652 0.323477,-0.337541 -0.215652,-0.206275 -0.318789,0.332853 -0.196899,-0.196899 0.581321,-0.58601 -0.210963,-0.210963 -0.586009,0.581321 -0.295349,-0.295349 z"
       id="path1"
       style="stroke-width:6.61459" />
  </g>
</svg>
