<?xml version="1.0" encoding="UTF-8" standalone="no"?>
<!-- Created with Inkscape (http://www.inkscape.org/) -->

<svg
   width="72"
   height="72"
   viewBox="0 0 19.05 19.050001"
   version="1.1"
   id="svg1"
   inkscape:version="1.3.2 (091e20e, 2023-11-25, custom)"
   sodipodi:docname="icon.svg"
   inkscape:export-filename="icon.png"
   inkscape:export-xdpi="68.965118"
   inkscape:export-ydpi="68.965118"
   xmlns:inkscape="http://www.inkscape.org/namespaces/inkscape"
   xmlns:sodipodi="http://sodipodi.sourceforge.net/DTD/sodipodi-0.dtd"
   xmlns="http://www.w3.org/2000/svg"
   xmlns:svg="http://www.w3.org/2000/svg">
  <sodipodi:namedview
     id="namedview1"
     pagecolor="#ffffff"
     bordercolor="#000000"
     borderopacity="0.25"
     inkscape:showpageshadow="2"
     inkscape:pageopacity="0.0"
     inkscape:pagecheckerboard="0"
     inkscape:deskcolor="#d1d1d1"
     inkscape:document-units="mm"
     inkscape:zoom="7.9999999"
     inkscape:cx="13.4375"
     inkscape:cy="30.3125"
     inkscape:window-width="1920"
     inkscape:window-height="1009"
     inkscape:window-x="1912"
     inkscape:window-y="-8"
     inkscape:window-maximized="1"
     inkscape:current-layer="layer1" />
  <defs
     id="defs1">
    <rect
       x="105.44165"
       y="268.48566"
       width="359.28265"
       height="262.62781"
       id="rect1" />
  </defs>
  <g
     inkscape:label="Layer 1"
     inkscape:groupmode="layer"
     id="layer1"
     transform="translate(-35.923626,-56.960553)">
    <path
       id="path2"
       style="fill:#ff00ff;fill-opacity:1;stroke:none;stroke-width:0.1905;stroke-dasharray:none;stroke-opacity:1;paint-order:stroke fill markers"
       d="m 35.923626,56.960553 v 1.458746 l 5.670812,9.821889 v -3.588752 l -4.441446,-7.691883 z" />
    <path
       style="font-weight:bold;font-size:8.36582px;font-family:Monospace;-inkscape-font-specification:Monospace;text-align:center;text-anchor:middle;fill:#ff00ff;stroke-width:0.1905;paint-order:stroke fill markers"
       d="m 39.803419,75.84005 h -3.798932 v -6.098716 h 3.798932 v 1.062067 h -2.593894 v 1.315329 h 2.348802 v 1.062067 h -2.348802 v 1.597186 h 2.593894 z m 2.316123,-5.012139 v 3.925563 h 0.32679 q 0.710768,0 1.013048,-0.445252 0.302281,-0.449336 0.302281,-1.523657 0,-1.066152 -0.302281,-1.511403 -0.30228,-0.445251 -1.013048,-0.445251 z m -1.205038,-1.086577 h 1.29082 q 1.495064,0 2.152728,0.714853 0.657665,0.710768 0.657665,2.328378 0,1.621694 -0.657665,2.340632 -0.657664,0.714853 -2.152728,0.714853 h -1.29082 z m 5.179619,1.062067 v -1.062067 h 3.631452 v 1.062067 h -1.213207 v 3.974582 h 1.213207 v 1.062067 h -3.631452 v -1.062067 h 1.213207 v -3.974582 z m 7.454894,5.036649 h -1.205038 v -5.044818 h -1.548167 v -1.053898 h 4.301372 v 1.053898 h -1.548167 z"
       id="text2"
       transform="scale(0.99775696,1.0022481)"
       aria-label="EDIT" />
    <path
       id="rect2-2-4-2-9-8-6"
       style="fill:#ff00ff;stroke-width:0.1905;paint-order:stroke fill markers"
       d="m 50.062511,67.030556 h 4.911109 v 1.99555 h -4.911109 z" />
    <path
       id="rect2-2-4-2-9-8-6-3"
       style="fill:#ff00ff;stroke-width:0.1905;paint-order:stroke fill markers"
       d="m 50.062515,62.494442 h 4.911109 v 1.99555 h -4.911109 z" />
    <path
       id="rect2-2-4-2-9-8-6-3-4"
       style="fill:#ff00ff;stroke-width:0.1905;paint-order:stroke fill markers"
       d="m 50.062515,56.960556 h 4.911109 v 1.99555 h -4.911109 z" />
    <path
       id="rect2-2-4-2-9-8-6-1"
       style="fill:#ff00ff;fill-opacity:1;stroke:none;stroke-width:0.1905;stroke-dasharray:none;stroke-opacity:1;paint-order:stroke fill markers"
       d="m 45.742683,67.030291 v 1.995905 h 3.32201 v -1.995905 z" />
    <path
       id="rect2-2-4-2-9-8-6-0"
       style="fill:#ff00ff;stroke-width:0.1905;paint-order:stroke fill markers"
       transform="rotate(90)"
       d="m 56.980442,-44.78817 h 12.065554 v 2.169593 H 56.980442 Z" />
    <path
       id="rect2-2-4-2-9-6"
       style="fill:#ff00ff;stroke-width:0.1905;paint-order:stroke fill markers"
       transform="rotate(90)"
       d="m 56.960556,-51.879738 h 7.529438 v 1.817223 h -7.529438 z" />
    <path
       id="rect2-2-4-2-9-6-3"
       style="fill:#ff00ff;stroke-width:0.1905;paint-order:stroke fill markers"
       transform="rotate(90)"
       d="m 62.494442,-54.973614 h 6.531666 v 1.398712 h -6.531666 z" />
  </g>
</svg>
