<?xml version="1.0" encoding="UTF-8" standalone="no"?>
<!-- Created with Inkscape (http://www.inkscape.org/) -->

<svg
   width="16"
   height="16"
   viewBox="0 0 4.2333334 4.2333334"
   version="1.1"
   id="svg1"
   inkscape:version="1.3.2 (091e20e, 2023-11-25, custom)"
   sodipodi:docname="save.svg"
   inkscape:export-filename="save.png"
   inkscape:export-xdpi="15.36"
   inkscape:export-ydpi="15.36"
   xmlns:inkscape="http://www.inkscape.org/namespaces/inkscape"
   xmlns:sodipodi="http://sodipodi.sourceforge.net/DTD/sodipodi-0.dtd"
   xmlns="http://www.w3.org/2000/svg"
   xmlns:svg="http://www.w3.org/2000/svg">
  <sodipodi:namedview
     id="namedview1"
     pagecolor="#ffffff"
     bordercolor="#000000"
     borderopacity="0.25"
     inkscape:showpageshadow="2"
     inkscape:pageopacity="0.0"
     inkscape:pagecheckerboard="0"
     inkscape:deskcolor="#d1d1d1"
     inkscape:document-units="mm"
     inkscape:zoom="16.283208"
     inkscape:cx="3.8997231"
     inkscape:cy="4.4524397"
     inkscape:window-width="1920"
     inkscape:window-height="1009"
     inkscape:window-x="1912"
     inkscape:window-y="-8"
     inkscape:window-maximized="1"
     inkscape:current-layer="layer1" />
  <defs
     id="defs1">
    <rect
       x="105.44165"
       y="268.48566"
       width="359.28265"
       height="262.62781"
       id="rect1" />
  </defs>
  <g
     inkscape:label="Layer 1"
     inkscape:groupmode="layer"
     id="layer1"
     transform="translate(-35.923626,-56.960553)">
    <g
       id="g2"
       style="fill:#000003;fill-opacity:1;stroke-width:7.99999"
       transform="matrix(0.01039886,0,0,0.01039886,35.923626,56.960553)">
      <path
         d="M 402.115,84.008 323.088,4.981 C 319.899,1.792 315.574,0 311.063,0 H 17.005 C 7.613,0 0,7.614 0,17.005 v 373.086 c 0,9.392 7.613,17.005 17.005,17.005 h 373.086 c 9.392,0 17.005,-7.613 17.005,-17.005 V 96.032 c 0,-4.509 -1.791,-8.835 -4.981,-12.024 z M 300.664,163.567 H 67.129 V 38.862 h 233.535 z"
         id="path1"
         style="fill:#000003;fill-opacity:1;stroke-width:7.99999" />
      <path
         d="m 214.051,148.16 h 43.08 c 3.131,0 5.668,-2.538 5.668,-5.669 V 59.584 c 0,-3.13 -2.537,-5.668 -5.668,-5.668 h -43.08 c -3.131,0 -5.668,2.538 -5.668,5.668 v 82.907 c 0,3.131 2.537,5.669 5.668,5.669 z"
         id="path2"
         style="fill:#000003;fill-opacity:1;stroke-width:7.99999" />
    </g>
  </g>
</svg>
